<svg xmlns="http://www.w3.org/2000/svg" xmlns:xlink="http://www.w3.org/1999/xlink" contentStyleType="text/css" height="339px" preserveAspectRatio="none" style="width:263px;height:339px;background:#FFFFFF;" version="1.1" viewBox="0 0 263 339" width="263px" zoomAndPan="magnify"><title>Architecture of OOXX</title><defs/><g><text fill="#000000" font-family="sans-serif" font-size="14" font-weight="bold" lengthAdjust="spacing" textLength="169.1963" x="39.9019" y="22.9951">Architecture of OOXX</text><!--cluster wasm--><g id="cluster_wasm"><path d="M8.5,43.2969 L54.8018,43.2969 A3.75,3.75 0 0 1 57.3018,45.7969 L64.3018,65.5938 L253.5,65.5938 A2.5,2.5 0 0 1 256,68.0938 L256,329.7969 A2.5,2.5 0 0 1 253.5,332.2969 L8.5,332.2969 A2.5,2.5 0 0 1 6,329.7969 L6,45.7969 A2.5,2.5 0 0 1 8.5,43.2969 " fill="none" style="stroke:#000000;stroke-width:1.5;"/><line style="stroke:#000000;stroke-width:1.5;" x1="6" x2="64.3018" y1="65.5938" y2="65.5938"/><text fill="#000000" font-family="sans-serif" font-size="14" font-weight="bold" lengthAdjust="spacing" textLength="45.3018" x="10" y="58.292">wasm</text></g><!--class Status--><g id="elem_Status"><rect codeLine="5" fill="#F1F1F1" height="96.8906" id="Status" rx="2.5" ry="2.5" style="stroke:#181818;stroke-width:0.5;" width="95.2002" x="22.5" y="78.2969"/><ellipse cx="45.865" cy="94.2969" fill="#EB937F" rx="11" ry="11" style="stroke:#181818;stroke-width:1.0;"/><path d="M49.9744,100.2969 L42.2556,100.2969 L42.2556,87.9063 L49.9744,87.9063 L49.9744,90.0625 L44.7087,90.0625 L44.7087,92.7344 L49.4744,92.7344 L49.4744,94.8906 L44.7087,94.8906 L44.7087,98.1406 L49.9744,98.1406 L49.9744,100.2969 Z " fill="#000000"/><text fill="#000000" font-family="sans-serif" font-size="14" lengthAdjust="spacing" textLength="44.6113" x="61.7239" y="99.1436">Status</text><line style="stroke:#181818;stroke-width:0.5;" x1="23.5" x2="116.7002" y1="110.2969" y2="110.2969"/><text fill="#000000" font-family="sans-serif" font-size="14" lengthAdjust="spacing" textLength="83.2002" x="28.5" y="127.292">Nobody = 0</text><text fill="#000000" font-family="sans-serif" font-size="14" lengthAdjust="spacing" textLength="55.5283" x="28.5" y="143.5889">You = 1</text><text fill="#000000" font-family="sans-serif" font-size="14" lengthAdjust="spacing" textLength="50.2305" x="28.5" y="159.8857">Me = 2</text><line style="stroke:#181818;stroke-width:0.5;" x1="23.5" x2="116.7002" y1="167.1875" y2="167.1875"/></g><!--class Position--><g id="elem_Position"><rect codeLine="10" fill="#F1F1F1" height="80.5938" id="Position" rx="2.5" ry="2.5" style="stroke:#181818;stroke-width:0.5;" width="87.0088" x="152.5" y="86.2969"/><ellipse cx="167.5" cy="102.2969" fill="#F1F1F1" rx="11" ry="11" style="stroke:#181818;stroke-width:1.0;"/><path d="M166.9844,102.8594 Q165.125,102.1563 164.4688,101.3906 Q163.8281,100.6094 163.8281,99.2969 Q163.8281,97.6094 164.9063,96.6406 Q165.9844,95.6719 167.8594,95.6719 Q168.7188,95.6719 169.5625,95.875 Q170.4219,96.0625 171.2656,96.4531 L171.2656,98.8438 Q170.4844,98.2813 169.6563,98 Q168.8438,97.7031 168.0469,97.7031 Q167.1719,97.7031 166.6875,98.0625 Q166.2188,98.4219 166.2188,99.0781 Q166.2188,99.5938 166.5625,99.9375 Q166.9063,100.2656 168,100.6719 L169.0625,101.0781 Q170.5469,101.625 171.25,102.5313 Q171.9688,103.4375 171.9688,104.8125 Q171.9688,106.6875 170.8594,107.6094 Q169.75,108.5313 167.5,108.5313 Q166.5781,108.5313 165.6563,108.3125 Q164.7344,108.0938 163.875,107.6719 L163.875,105.1406 Q164.8438,105.8281 165.7656,106.1719 Q166.6875,106.5156 167.5781,106.5156 Q168.4844,106.5156 168.9844,106.1094 Q169.4844,105.6875 169.4844,104.9531 Q169.4844,104.3906 169.1406,103.9844 Q168.8125,103.5625 168.1875,103.3125 L166.9844,102.8594 Z " fill="#000000"/><text fill="#000000" font-family="sans-serif" font-size="14" lengthAdjust="spacing" textLength="55.0088" x="181.5" y="107.1436">Position</text><line style="stroke:#181818;stroke-width:0.5;" x1="153.5" x2="238.5088" y1="118.2969" y2="118.2969"/><text fill="#000000" font-family="sans-serif" font-size="14" lengthAdjust="spacing" textLength="72.0918" x="158.5" y="135.292">x: number</text><text fill="#000000" font-family="sans-serif" font-size="14" lengthAdjust="spacing" textLength="72.0918" x="158.5" y="151.5889">y: number</text><line style="stroke:#181818;stroke-width:0.5;" x1="153.5" x2="238.5088" y1="158.8906" y2="158.8906"/></g><!--class Game--><g id="elem_Game"><rect codeLine="14" fill="#F1F1F1" height="80.5938" id="Game" rx="2.5" ry="2.5" style="stroke:#181818;stroke-width:0.5;" width="188.873" x="22.5" y="235.2969"/><ellipse cx="91.8472" cy="251.2969" fill="#ADD1B2" rx="11" ry="11" style="stroke:#181818;stroke-width:1.0;"/><path d="M94.8159,256.9375 Q94.2378,257.2344 93.5972,257.375 Q92.9565,257.5313 92.2534,257.5313 Q89.7534,257.5313 88.4253,255.8906 Q87.1128,254.2344 87.1128,251.1094 Q87.1128,247.9844 88.4253,246.3281 Q89.7534,244.6719 92.2534,244.6719 Q92.9565,244.6719 93.5972,244.8281 Q94.2534,244.9844 94.8159,245.2813 L94.8159,248 Q94.1909,247.4219 93.5972,247.1563 Q93.0034,246.875 92.3784,246.875 Q91.0347,246.875 90.3472,247.9531 Q89.6597,249.0156 89.6597,251.1094 Q89.6597,253.2031 90.3472,254.2813 Q91.0347,255.3438 92.3784,255.3438 Q93.0034,255.3438 93.5972,255.0781 Q94.1909,254.7969 94.8159,254.2188 L94.8159,256.9375 Z " fill="#000000"/><text fill="#000000" font-family="sans-serif" font-size="14" lengthAdjust="spacing" textLength="41.6787" x="112.3472" y="256.1436">Game</text><line style="stroke:#181818;stroke-width:0.5;" x1="23.5" x2="210.373" y1="267.2969" y2="267.2969"/><text fill="#000000" font-family="sans-serif" font-size="14" lengthAdjust="spacing" textLength="162.6953" x="28.5" y="284.292">readonly status: Status</text><line style="stroke:#181818;stroke-width:0.5;" x1="23.5" x2="210.373" y1="291.5938" y2="291.5938"/><text fill="#000000" font-family="sans-serif" font-size="14" lengthAdjust="spacing" textLength="176.873" x="28.5" y="308.5889">put(pos: Position): Status</text></g><!--SRC=[HOsn3i8m34Jdv2kiJh01OoK69YOe4aiPtTH0H5jNYIEeKFyTKu6wlVETxyHBGv3jWhjx8ISf4F0LYg8iCsjxT0-y4Jmnjl2sXhhKmbbGKlnAS-IAwm6si59nuQIqLZgGmiQQqPee8Jc14qSldhlfwvM3zbGKb8UPDUqQZ17ssD8K38GrTyq0SPhCVzFgz4aMFUlbNxoSpT6EzWC0]--></g></svg>